<svg width="18" height="18" viewBox="0 0 18 18" fill="none" xmlns="http://www.w3.org/2000/svg">
<path d="M9.00049 2.21541C6.77124 2.21541 4.9576 4.02905 4.9576 6.25829V10.6527C4.9576 12.6422 6.40211 14.3007 8.29738 14.6344V16.0678C7.5377 16.1416 6.77897 16.3348 6.02433 16.6476C5.6656 16.7963 5.49531 17.2076 5.64398 17.5663C5.79265 17.925 6.20394 18.0953 6.5627 17.9466C8.20316 17.2667 9.79795 17.2668 11.4382 17.9466C11.788 18.0943 12.2083 17.9287 12.357 17.5664C12.5057 17.2076 12.3354 16.7963 11.9767 16.6476C11.2221 16.3348 10.4633 16.1416 9.70363 16.0678V14.6344C11.5989 14.3007 13.0434 12.6423 13.0434 10.6528V6.25833C13.0434 4.02905 11.2297 2.21541 9.00049 2.21541ZM11.6371 10.6527C11.4919 14.1515 6.50778 14.1488 6.36382 10.6527V6.25829C6.50909 2.75955 11.4932 2.76226 11.6371 6.25829V10.6527ZM15.8558 6.26659C15.819 7.19863 14.4868 7.19965 14.4496 6.26659C14.4496 4.17101 13.2249 2.23689 11.3297 1.3392C10.9787 1.17295 10.829 0.753717 10.9952 0.402795C11.1615 0.0518726 11.5807 -0.0978898 11.9316 0.0683253C14.2917 1.16145 15.8814 3.65974 15.8558 6.26659ZM3.55138 6.26659C3.51521 7.19772 2.18257 7.20039 2.14516 6.26659C2.11957 3.65978 3.7093 1.16141 6.06936 0.0683253C6.42021 -0.0978898 6.83951 0.0518374 7.00576 0.402795C7.17198 0.753717 7.02225 1.17298 6.67129 1.3392C4.77603 2.23686 3.55138 4.17101 3.55138 6.26659ZM9.87937 10.4066H8.1216C7.18871 10.3695 7.18941 9.03723 8.1216 9.00042H9.87937C10.8123 9.03758 10.8115 10.3699 9.87937 10.4066ZM1.35424 3.13339C1.64778 2.41805 2.04054 1.74753 2.52164 1.14039C2.76281 0.836051 2.71159 0.39383 2.40725 0.152663C2.10294 -0.0885033 1.66069 -0.0372817 1.41952 0.267059C0.85654 0.977517 0.396881 1.76226 0.0533069 2.59956C-0.0941001 2.95881 0.0775993 3.36953 0.436853 3.51694C0.524215 3.5528 0.614599 3.56978 0.703508 3.56978C0.980252 3.56978 1.24269 3.40528 1.35424 3.13339ZM17.5641 3.51694C17.9233 3.36953 18.095 2.95881 17.9476 2.59956C17.6041 1.76229 17.1444 0.977517 16.5815 0.267094C16.3403 -0.0372818 15.8981 -0.0885033 15.5937 0.152699C15.2894 0.393865 15.2382 0.836086 15.4793 1.14043C15.9604 1.74756 16.3532 2.41808 16.6467 3.13343C16.7583 3.40532 17.0207 3.56981 17.2975 3.56981C17.3863 3.56978 17.4768 3.5528 17.5641 3.51694Z" fill="#4BC313"/>
</svg>
