<svg width="25" height="29" viewBox="0 0 25 29" fill="none" xmlns="http://www.w3.org/2000/svg">
<g clip-path="url(#clip0_1053_6)">
<path d="M11.9999 29C13.4386 29 14.6775 28.131 15.2211 26.8906H8.77869C9.3223 28.131 10.5612 29 11.9999 29Z" fill="#7E899D"/>
<path d="M19.2656 16.6185V15.0781C19.2656 11.8052 17.09 9.0312 14.1093 8.12516V7.10938C14.1093 5.94627 13.163 5 11.9999 5C10.8368 5 9.89056 5.94627 9.89056 7.10938V8.12516C6.90978 9.0312 4.73431 11.8052 4.73431 15.0781V16.6185C4.73431 19.4935 3.63846 22.2195 1.64867 24.2946C1.45367 24.4979 1.39887 24.798 1.5094 25.0571C1.61993 25.3162 1.87446 25.4844 2.15618 25.4844H21.8437C22.1254 25.4844 22.3799 25.3162 22.4904 25.0571C22.6009 24.798 22.5462 24.4979 22.3512 24.2946C20.3614 22.2195 19.2656 19.4934 19.2656 16.6185ZM12.7031 7.84663C12.4716 7.82431 12.2371 7.8125 11.9999 7.8125C11.7627 7.8125 11.5282 7.82431 11.2968 7.84663V7.10938C11.2968 6.72167 11.6122 6.40625 11.9999 6.40625C12.3876 6.40625 12.7031 6.72167 12.7031 7.10938V7.84663Z" fill="#7E899D"/>
<path d="M21.1406 15.078C21.1406 15.4664 21.4554 15.7812 21.8437 15.7812C22.2321 15.7812 22.5469 15.4664 22.5469 15.078C22.5469 12.2609 21.4498 9.61228 19.4578 7.62023C19.1832 7.34569 18.738 7.34564 18.4634 7.62023C18.1888 7.89483 18.1888 8.34 18.4634 8.61459C20.1898 10.341 21.1406 12.6365 21.1406 15.078V15.078Z" fill="#7E899D"/>
<path d="M2.15613 15.7811C2.54444 15.7811 2.85925 15.4663 2.85925 15.078C2.85925 12.6365 3.81006 10.3411 5.53647 8.61461C5.81106 8.34002 5.81106 7.89485 5.53647 7.62025C5.26192 7.34566 4.81671 7.34566 4.54211 7.62025C2.55007 9.6123 1.453 12.2608 1.453 15.078C1.453 15.4663 1.76782 15.7811 2.15613 15.7811V15.7811Z" fill="#7E899D"/>
</g>
<circle cx="21.5" cy="3.5" r="3.5" fill="#4BC313"/>
<defs>
<clipPath id="clip0_1053_6">
<rect width="24" height="24" fill="white" transform="translate(0 5)"/>
</clipPath>
</defs>
</svg>
