<svg width="15" height="15" viewBox="0 0 15 15" fill="none" xmlns="http://www.w3.org/2000/svg">
<path d="M0.585756 14.9993C0.510266 14.9993 0.434161 14.9848 0.36166 14.9547C0.142748 14.864 0 14.6504 0 14.4134L0.00032223 7.57091C-0.0459911 0.871363 8.10685 -2.5349 12.83 2.21339C17.5031 6.95487 14.1292 15.0052 7.46441 14.9993C6.28384 14.9994 5.15683 14.7346 4.11471 14.2123C3.11893 13.7133 1.91335 13.9145 1.11474 14.7131L1.00014 14.8277C0.888067 14.9398 0.738201 14.9993 0.585756 14.9993ZM2.96648 12.7687C3.53542 12.7687 4.10779 12.8982 4.63971 13.1648C5.51899 13.6055 6.47203 13.8285 7.47103 13.8276C13.0715 13.8358 15.9414 6.9947 11.9974 3.03786C7.99679 -0.9657 1.14304 1.90188 1.17204 7.56244C1.17204 7.56432 1.17207 7.56622 1.17207 7.5681L1.17181 13.2238C1.72698 12.9236 2.34461 12.7687 2.96648 12.7687ZM5.74156 7.50017C5.74156 7.90462 5.41368 8.23251 5.00922 8.23251C4.03778 8.19393 4.03804 6.80626 5.00922 6.76783C5.41368 6.76783 5.74156 7.09571 5.74156 7.50017ZM7.52847 6.76783C7.12402 6.76783 6.79613 7.09571 6.79613 7.50017C6.83471 8.4716 8.22238 8.47134 8.26082 7.50017C8.26082 7.09571 7.93293 6.76783 7.52847 6.76783ZM10.0477 6.76783C9.64327 6.76783 9.31539 7.09571 9.31539 7.50017C9.35397 8.4716 10.7416 8.47134 10.7801 7.50017C10.7801 7.09571 10.4522 6.76783 10.0477 6.76783Z" fill="#4BC313"/>
</svg>
