<svg width="22" height="24" viewBox="0 0 22 24" fill="none" xmlns="http://www.w3.org/2000/svg">
<path d="M10.9999 24C12.4386 24 13.6775 23.131 14.2211 21.8906H7.77869C8.3223 23.131 9.56125 24 10.9999 24Z" fill="#7E899D"/>
<path d="M18.2656 11.6185V10.0781C18.2656 6.80522 16.09 4.0312 13.1093 3.12516V2.10938C13.1093 0.946266 12.163 0 10.9999 0C9.83682 0 8.89056 0.946266 8.89056 2.10938V3.12516C5.90978 4.0312 3.73431 6.80517 3.73431 10.0781V11.6185C3.73431 14.4935 2.63846 17.2195 0.648667 19.2946C0.453667 19.4979 0.39887 19.798 0.509401 20.0571C0.619933 20.3162 0.874464 20.4844 1.15618 20.4844H20.8437C21.1254 20.4844 21.3799 20.3162 21.4904 20.0571C21.6009 19.798 21.5462 19.4979 21.3512 19.2946C19.3614 17.2195 18.2656 14.4934 18.2656 11.6185ZM11.7031 2.84663C11.4716 2.82431 11.2371 2.8125 10.9999 2.8125C10.7627 2.8125 10.5282 2.82431 10.2968 2.84663V2.10938C10.2968 1.72167 10.6122 1.40625 10.9999 1.40625C11.3876 1.40625 11.7031 1.72167 11.7031 2.10938V2.84663Z" fill="#7E899D"/>
<path d="M20.1406 10.078C20.1406 10.4664 20.4554 10.7812 20.8437 10.7812C21.2321 10.7812 21.5469 10.4664 21.5469 10.078C21.5469 7.26086 20.4498 4.61228 18.4578 2.62023C18.1832 2.34569 17.738 2.34564 17.4634 2.62023C17.1888 2.89483 17.1888 3.34 17.4634 3.61459C19.1898 5.34105 20.1406 7.63647 20.1406 10.078Z" fill="#7E899D"/>
<path d="M1.15613 10.7811C1.54444 10.7811 1.85925 10.4663 1.85925 10.078C1.85925 7.63649 2.81006 5.34106 4.53647 3.61461C4.81106 3.34002 4.81106 2.89485 4.53647 2.62025C4.26192 2.34566 3.81671 2.34566 3.54211 2.62025C1.55007 4.6123 0.453003 7.26083 0.453003 10.078C0.453003 10.4663 0.767815 10.7811 1.15613 10.7811Z" fill="#7E899D"/>
</svg>
