<svg width="18" height="11" viewBox="0 0 18 11" fill="none" xmlns="http://www.w3.org/2000/svg">
<path d="M9.32593 10H7.12793L2.54993 5.408V10H0.743932V0.129999H2.54993V4.54L6.94593 0.129999H9.10193L4.32793 4.876L9.32593 10ZM17.6253 4.666V9.398C17.1773 9.622 16.6313 9.79933 15.9873 9.93C15.3526 10.0607 14.704 10.126 14.0413 10.126C13.024 10.126 12.142 9.92533 11.3953 9.524C10.6486 9.11333 10.0746 8.53 9.67331 7.774C9.28131 7.00867 9.08531 6.10333 9.08531 5.058C9.08531 4.022 9.28131 3.126 9.67331 2.37C10.0746 1.60467 10.6393 1.02133 11.3673 0.62C12.1046 0.209333 12.968 0.00399935 13.9573 0.00399935C14.648 0.00399935 15.2966 0.106666 15.9033 0.312C16.51 0.508 17.014 0.792666 17.4153 1.166L16.8133 2.468C16.356 2.11333 15.9033 1.86133 15.4553 1.712C15.0166 1.55333 14.5313 1.474 13.9993 1.474C12.982 1.474 12.212 1.77733 11.6893 2.384C11.176 2.98133 10.9193 3.87267 10.9193 5.058C10.9193 7.48467 11.9833 8.698 14.1113 8.698C14.746 8.698 15.3806 8.60933 16.0153 8.432V5.954H13.8873V4.666H17.6253Z" fill="#4BC313"/>
</svg>
