<svg width="20" height="20" viewBox="0 0 20 20" fill="none" xmlns="http://www.w3.org/2000/svg">
<path d="M6.65506 4.57329C6.65273 4.022 6.43293 3.49413 6.0439 3.10544C5.23586 2.29819 3.9308 2.29819 3.12276 3.10544C2.73367 3.49413 2.51387 4.022 2.5116 4.57329C2.49613 4.70817 2.49613 4.84441 2.5116 4.97929C2.53504 5.11495 2.57324 5.24762 2.62555 5.37488C2.68116 5.49818 2.74701 5.61659 2.82236 5.72883C2.89675 5.84556 2.98357 5.95376 3.08133 6.05155C3.17559 6.14589 3.27976 6.2297 3.39209 6.3014C3.50118 6.38123 3.61946 6.44766 3.74428 6.49919C3.8816 6.57076 4.02798 6.62333 4.17935 6.65535C4.31356 6.67044 4.44912 6.67044 4.58333 6.65535C5.1304 6.6558 5.65545 6.43875 6.0439 6.05155C6.14166 5.95376 6.22848 5.84556 6.30287 5.72883C6.37823 5.61659 6.44407 5.49818 6.49968 5.37488C6.56578 5.24918 6.6179 5.11651 6.65506 4.97929C6.67053 4.84441 6.67053 4.70817 6.65506 4.57329Z" fill="#4BC313"/>
<path d="M17.4881 4.57312C17.5035 4.43825 17.5035 4.30202 17.4881 4.16715C17.4522 4.0328 17.3998 3.90347 17.3323 3.782C17.2788 3.65429 17.2126 3.53224 17.1349 3.41767C17.0629 3.30226 16.9755 3.19719 16.8752 3.10539C16.065 2.2982 14.7564 2.2982 13.9462 3.10539C13.556 3.49405 13.3356 4.02187 13.3334 4.57312C13.3374 4.84747 13.3902 5.11883 13.4892 5.37465C13.5412 5.4978 13.6038 5.61621 13.6761 5.72857C13.7551 5.8417 13.8456 5.94638 13.9462 6.04085C14.038 6.14117 14.1428 6.22874 14.2578 6.30108C14.3672 6.38098 14.4857 6.4474 14.6109 6.49886C14.7376 6.55228 14.8701 6.59073 15.0056 6.61337C15.1385 6.64323 15.2745 6.65722 15.4107 6.655C15.5453 6.67055 15.6812 6.67055 15.8158 6.655C15.948 6.6323 16.077 6.59385 16.2001 6.5405C16.3287 6.48936 16.4508 6.42294 16.5636 6.34272C16.6787 6.27038 16.7835 6.18281 16.8752 6.08249C16.9753 5.99049 17.0627 5.88549 17.1349 5.7702C17.2148 5.66064 17.281 5.54185 17.3323 5.41628C17.4032 5.2781 17.4556 5.13106 17.4881 4.97909C17.504 4.84422 17.504 4.70799 17.4881 4.57312Z" fill="#4BC313"/>
<path d="M6.65469 16.2399C6.67007 16.105 6.67007 15.9688 6.65469 15.8339C6.61879 15.6962 6.56647 15.5635 6.49889 15.4383C6.44313 15.3151 6.37711 15.1966 6.30155 15.0844C6.22937 14.9691 6.14199 14.8641 6.04189 14.7721C5.23169 13.965 3.92313 13.965 3.11293 14.7721C3.01283 14.8641 2.92545 14.9691 2.85327 15.0844C2.7777 15.1966 2.71169 15.3151 2.65592 15.4383C2.60204 15.5651 2.56368 15.6979 2.54167 15.8339C2.5124 15.9672 2.4985 16.1034 2.50013 16.2399C2.50246 16.7911 2.72285 17.3189 3.11293 17.7076C3.20472 17.8079 3.30949 17.8955 3.42452 17.9678C3.5339 18.0477 3.65243 18.1142 3.77766 18.1656C3.9043 18.219 4.0368 18.2575 4.17234 18.2801C4.30522 18.31 4.44122 18.324 4.57741 18.3218C4.71198 18.3373 4.84791 18.3373 4.98248 18.3218C5.11465 18.2991 5.2437 18.2606 5.36678 18.2073C5.49537 18.1561 5.61741 18.0897 5.7303 18.0095C5.84533 17.9371 5.9501 17.8496 6.04189 17.7492C6.14199 17.6572 6.22937 17.5522 6.30155 17.437C6.38146 17.3275 6.44774 17.2086 6.49889 17.083C6.56978 16.9448 6.62217 16.7978 6.65469 16.6458C6.67066 16.511 6.67066 16.3747 6.65469 16.2399Z" fill="#4BC313"/>
<path d="M17.4881 16.2399C17.5034 16.105 17.5034 15.9688 17.4881 15.8339C17.4522 15.6962 17.3998 15.5635 17.3323 15.4383C17.2765 15.3151 17.2105 15.1966 17.1349 15.0844C17.0627 14.9691 16.9754 14.8641 16.8753 14.7721C16.0651 13.965 14.7565 13.965 13.9463 14.7721C13.8462 14.8641 13.7588 14.9691 13.6866 15.0844C13.6111 15.1966 13.5451 15.3151 13.4893 15.4383C13.4354 15.5651 13.3971 15.6979 13.375 15.8339C13.3458 15.9672 13.3319 16.1034 13.3335 16.2399C13.3358 16.7911 13.5562 17.3189 13.9463 17.7076C14.0381 17.8079 14.1429 17.8955 14.2579 17.9678C14.3673 18.0477 14.4858 18.1142 14.611 18.1656C14.7377 18.219 14.8702 18.2575 15.0057 18.2801C15.1386 18.31 15.2746 18.324 15.4108 18.3218C15.5454 18.3373 15.6813 18.3373 15.8159 18.3218C15.948 18.2991 16.0771 18.2606 16.2001 18.2073C16.3287 18.1561 16.4508 18.0897 16.5637 18.0095C16.6787 17.9371 16.7835 17.8496 16.8753 17.7492C16.9754 17.6572 17.0627 17.5522 17.1349 17.437C17.2148 17.3275 17.2811 17.2086 17.3323 17.083C17.4032 16.9448 17.4555 16.7978 17.4881 16.6458C17.504 16.511 17.504 16.3747 17.4881 16.2399Z" fill="#4BC313"/>
</svg>
