<svg width="33" height="33" viewBox="0 0 33 33" fill="none" xmlns="http://www.w3.org/2000/svg">
<circle cx="16.5" cy="16.5" r="16.5" fill="#4BC313"/>
<path d="M15 16C17.2091 16 19 14.2091 19 12C19 9.79086 17.2091 8 15 8C12.7909 8 11 9.79086 11 12C11 14.2091 12.7909 16 15 16Z" fill="white"/>
<path d="M15.35 18.01C12.62 17.91 7 19.27 7 22V24H16.54C14.07 21.24 15.31 18.11 15.35 18.01Z" fill="white"/>
<path d="M24.43 22.02C24.79 21.43 25 20.74 25 20C25 17.79 23.21 16 21 16C18.79 16 17 17.79 17 20C17 22.21 18.79 24 21 24C21.74 24 22.43 23.78 23.02 23.43L25.59 26L27 24.59L24.43 22.02ZM21 22C19.9 22 19 21.1 19 20C19 18.9 19.9 18 21 18C22.1 18 23 18.9 23 20C23 21.1 22.1 22 21 22Z" fill="white"/>
</svg>
