<svg width="28" height="28" viewBox="0 0 28 28" fill="none" xmlns="http://www.w3.org/2000/svg">
<path d="M10.5 15.1667C13.0774 15.1667 15.1667 13.0774 15.1667 10.5C15.1667 7.92271 13.0774 5.83337 10.5 5.83337C7.92271 5.83337 5.83337 7.92271 5.83337 10.5C5.83337 13.0774 7.92271 15.1667 10.5 15.1667Z" fill="#4BC313"/>
<path d="M10.5 17.5C7.38496 17.5 1.16663 19.0634 1.16663 22.1667V24.5H19.8333V22.1667C19.8333 19.0634 13.615 17.5 10.5 17.5ZM19.5533 6.25337L17.5933 8.22504C18.5733 9.60171 18.5733 11.3867 17.5933 12.7634L19.5533 14.735C21.91 12.3784 21.91 8.82004 19.5533 6.25337ZM23.415 2.33337L21.5133 4.23504C24.745 7.75837 24.745 13.055 21.5133 16.765L23.415 18.6667C27.965 14.1284 27.9766 7.05837 23.415 2.33337Z" fill="#4BC313"/>
</svg>
