<svg width="15" height="15" viewBox="0 0 15 15" fill="none" xmlns="http://www.w3.org/2000/svg">
<path d="M14.961 5.75386C14.8628 5.45012 14.5934 5.23439 14.2747 5.20567L9.94529 4.81255L8.23333 0.805532C8.10709 0.511869 7.81961 0.321777 7.5002 0.321777C7.18079 0.321777 6.8933 0.511869 6.76707 0.806218L5.05511 4.81255L0.725008 5.20567C0.406854 5.23508 0.138139 5.45012 0.0393744 5.75386C-0.0593906 6.05759 0.0318211 6.39074 0.272497 6.60074L3.54502 9.47076L2.58003 13.7216C2.50942 14.0341 2.63073 14.3572 2.89006 14.5446C3.02945 14.6453 3.19253 14.6966 3.35699 14.6966C3.49878 14.6966 3.63943 14.6584 3.76567 14.5829L7.5002 12.3509L11.2334 14.5829C11.5065 14.7472 11.8509 14.7322 12.1097 14.5446C12.3691 14.3566 12.4903 14.0334 12.4197 13.7216L11.4547 9.47076L14.7272 6.60131C14.9679 6.39074 15.0598 6.05816 14.961 5.75386Z" fill="#FFC107"/>
</svg>
