<svg width="15" height="15" viewBox="0 0 15 15" fill="none" xmlns="http://www.w3.org/2000/svg">
<path d="M14.4137 4.13247C14.7372 4.13247 14.9995 3.87019 14.9995 3.54662V2.93148C14.9995 1.31506 13.6844 0 12.068 0C12.068 0 2.88458 0.00137675 2.86193 0.00404237C2.08893 0.0310501 1.3464 0.362759 0.811162 0.923593C0.262542 1.49843 -0.02347 2.24609 0.00344983 3.03274C0.00233672 3.04765 0.00175087 11.4827 0.00175087 11.4827C0.00175087 13.4221 1.57962 15 3.51908 15H12.068C13.6845 15 14.9995 13.6849 14.9995 12.0685V7.62051C14.9995 6.00409 13.6845 4.68903 12.068 4.68903H2.93097C1.99036 4.68903 1.21921 3.95385 1.17536 3.01531C1.15306 2.53808 1.32475 2.08252 1.65874 1.73254C1.99757 1.37751 2.47343 1.17393 2.96425 1.17393C2.98156 1.17393 12.068 1.1717 12.068 1.1717C13.0383 1.1717 13.8278 1.96113 13.8278 2.93148V3.54662C13.8278 3.87019 14.0901 4.13247 14.4137 4.13247ZM2.93097 5.86073H12.068C13.0384 5.86073 13.8278 6.65017 13.8278 7.62051V12.0685C13.8278 13.0389 13.0384 13.8283 12.068 13.8283H3.51908C2.2257 13.8283 1.17345 12.7761 1.17345 11.4827V5.27725C1.66346 5.64429 2.2723 5.86073 2.93097 5.86073ZM12.6561 9.84451C12.6561 10.249 12.3283 10.5768 11.9238 10.5768C10.9524 10.5382 10.9527 9.15063 11.9238 9.1122C12.3283 9.1122 12.6561 9.44007 12.6561 9.84451ZM12.6561 2.93148C12.6561 2.60791 12.3938 2.34563 12.0703 2.34563H2.931C2.1537 2.37656 2.15428 3.48666 2.931 3.51733H12.0703C12.3938 3.51733 12.6561 3.25504 12.6561 2.93148Z" fill="#4BC313"/>
</svg>
