<svg width="24" height="24" viewBox="0 0 24 24" fill="none" xmlns="http://www.w3.org/2000/svg">
<path d="M9.89204 19.7661C4.4425 19.7661 0.00898743 15.3326 0.00898743 9.88306C0.00898743 4.43351 4.4425 0 9.89204 0C15.3416 0 19.7751 4.43351 19.7751 9.88306C19.7751 15.3326 15.3416 19.7661 9.89204 19.7661V19.7661ZM9.89204 1.87357C5.47558 1.87357 1.88255 5.4666 1.88255 9.88306C1.88255 14.2995 5.47558 17.8925 9.89204 17.8925C14.3085 17.8925 17.9015 14.2995 17.9015 9.88306C17.9015 5.4666 14.3085 1.87357 9.89204 1.87357V1.87357ZM23.7163 23.7256C24.0821 23.3598 24.0821 22.7666 23.7163 22.4008L19.5242 18.2087C19.1583 17.8428 18.5652 17.8428 18.1993 18.2087C17.8335 18.5745 17.8335 19.1677 18.1993 19.5335L22.3914 23.7256C22.5743 23.9085 22.8141 23.9999 23.0539 23.9999C23.2937 23.9999 23.5333 23.9085 23.7163 23.7256V23.7256Z" fill="white"/>
</svg>
