<svg width="27" height="11" viewBox="0 0 27 11" fill="none" xmlns="http://www.w3.org/2000/svg">
<path d="M6.27083 5.372L9.78083 10H6.98583L4.91883 7.114L2.83883 10H0.0698317L3.56683 5.372L0.134832 0.834999H2.91683L4.91883 3.643L6.94683 0.834999H9.71583L6.27083 5.372ZM14.0469 10.117C13.1109 10.117 12.2962 9.92633 11.6029 9.545C10.9182 9.155 10.3895 8.609 10.0169 7.907C9.6442 7.19633 9.45786 6.36433 9.45786 5.411C9.45786 4.45767 9.6442 3.63 10.0169 2.928C10.3895 2.21733 10.9182 1.67133 11.6029 1.29C12.2962 0.908666 13.1109 0.717999 14.0469 0.717999C14.9829 0.717999 15.7932 0.908666 16.4779 1.29C17.1712 1.67133 17.6999 2.21733 18.0639 2.928C18.4365 3.63 18.6229 4.45767 18.6229 5.411C18.6229 6.36433 18.4365 7.19633 18.0639 7.907C17.6912 8.609 17.1582 9.155 16.4649 9.545C15.7802 9.92633 14.9742 10.117 14.0469 10.117ZM14.0469 8.284C14.7402 8.284 15.2819 8.04133 15.6719 7.556C16.0619 7.062 16.2569 6.347 16.2569 5.411C16.2569 4.475 16.0575 3.76433 15.6589 3.279C15.2689 2.79367 14.7315 2.551 14.0469 2.551C13.3535 2.551 12.8119 2.79367 12.4219 3.279C12.0319 3.75567 11.8369 4.46633 11.8369 5.411C11.8369 6.35567 12.0319 7.07067 12.4219 7.556C12.8119 8.04133 13.3535 8.284 14.0469 8.284ZM19.8435 10V0.834999H26.2265V2.707H22.1965V4.397H25.9665V6.269H22.1965V10H19.8435Z" fill="#4BC313"/>
</svg>
